Coordinates
version=1
nRows=19
nColumns=33
inDegrees=yes

Units are S.I. units (second, meters, Newtons, ...)
Angles are in degrees.

endheader
time	ground_thorax_rot_x	ground_thorax_rot_y	ground_thorax_rot_z	ground_thorax_tx	ground_thorax_ty	ground_thorax_tz	clav_prot_r	clav_elev_r	scapula_abduction_r	scapula_elevation_r	scapula_upward_rot_r	scapula_winging_r	shoulder_elv_r	plane_of_elev_r	axial_rot_r	elbow_flexion_r	pro_sup_r	wrist_flex_r	wrist_dev_r	clav_prot_l	clav_elev_l	scapula_abduction_l	scapula_elevation_l	scapula_upward_rot_l	scapula_winging_l	shoulder_elv_l	plane_of_elev_l	axial_rot_l	elbow_flexion_l	pro_sup_l	wrist_flex_l	wrist_dev_l	
6.5000	-30.032247	-30.032725	40.896713	-113.025609	785.547660	8.932963	7.320763	-45.000000	38.113227	-45.000000	-38.965173	2061.650999	-2634.125664	149.081392	-109.806224	1091.456748	15.363635	17.756671	11.831545	14.395226	37.476469	-33.347318	-45.000000	-45.000000	-2081.226150	983.614648	134.873165	-180.000000	728.945697	33.826965	10.263546	-20.657541	
6.5100	-29.623704	-30.583527	41.664432	-109.175820	784.193646	8.953605	7.390727	-45.000000	37.989963	-45.000000	-39.574788	2061.818718	-2634.376404	149.187787	-109.390484	1091.358019	15.905087	17.691508	11.891347	14.299945	37.429606	-33.036012	-45.000000	-45.000000	-2081.497047	983.374599	135.003411	-180.000000	728.684976	34.609000	10.408563	-20.719303	
6.5200	-29.170809	-31.128999	42.483518	-105.374361	782.896495	8.978587	7.484322	-45.000000	37.878338	-45.000000	-40.222762	2061.973375	-2634.611556	149.288119	-108.961483	1091.257965	16.462405	17.625353	11.934907	14.179870	37.362001	-32.699638	-45.000000	-45.000000	-2081.768304	983.131871	135.146271	-180.000000	728.407909	35.385580	10.540796	-20.784346	
6.5300	-28.713827	-31.633758	43.293630	-101.630050	781.667739	9.006883	7.555995	-45.000000	37.757041	-45.000000	-40.854181	2062.133758	-2634.830014	149.391171	-108.539509	1091.153373	17.041533	17.560480	11.958846	14.088259	37.302233	-32.372059	-45.000000	-45.000000	-2082.031272	982.896344	135.286729	-180.000000	728.130359	36.159709	10.650166	-20.851375	
6.5400	-28.246430	-32.103516	44.103545	-97.952258	780.518812	9.036896	7.618312	-45.000000	37.635598	-45.000000	-41.476898	2062.297126	-2635.030558	149.497002	-108.121733	1091.045990	17.652816	17.497414	11.961380	14.009283	37.245296	-32.045628	-45.000000	-45.000000	-2082.293615	982.669324	135.427586	-180.000000	727.851841	36.923860	10.740840	-20.917364	
6.5500	-27.786159	-32.528152	44.891659	-94.351170	779.459745	9.066374	7.666494	-45.000000	37.504327	-45.000000	-42.070724	2062.462509	-2635.221866	149.602821	-107.716213	1090.932156	18.311071	17.437610	11.940018	13.945938	37.197614	-31.733412	-45.000000	-45.000000	-2082.544263	982.454933	135.560088	-180.000000	727.583757	37.669781	10.813434	-20.981571	
6.5600	-27.325006	-32.913964	45.668364	-90.838585	778.498621	9.092436	7.709432	-45.000000	37.373848	-45.000000	-42.641591	2062.625188	-2635.400265	149.708771	-107.324259	1090.813880	19.031700	17.381578	11.895496	13.884108	37.152258	-31.427532	-45.000000	-45.000000	-2082.792025	982.251473	135.688835	-180.000000	727.325692	38.385096	10.872034	-21.040295	
6.5700	-26.897747	-33.233911	46.386179	-87.428159	777.640472	9.111845	7.713229	-45.000000	37.226766	-45.000000	-43.141135	2062.797379	-2635.570985	149.824265	-106.966246	1090.688240	19.832742	17.332082	11.826742	13.861344	37.132557	-31.156983	-45.000000	-45.000000	-2083.028686	982.067269	135.802977	-180.000000	727.090625	39.066314	10.911070	-21.092622	
6.5800	-26.489581	-33.500971	47.062224	-84.135533	776.887467	9.121388	7.692825	-45.000000	37.077717	-45.000000	-43.576793	2062.974178	-2635.730803	149.947933	-106.636994	1090.560610	20.723824	17.289439	11.734558	13.863768	37.129227	-30.906795	-45.000000	-45.000000	-2083.260892	981.900773	135.907653	-180.000000	726.875015	39.699969	10.935074	-21.135474	
6.5900	-26.086905	-33.732234	47.720802	-80.977292	776.238707	9.118388	7.674341	-45.000000	36.934187	-45.000000	-43.960139	2063.139235	-2635.887145	150.073616	-106.334345	1090.432192	21.701568	17.251838	11.621602	13.862236	37.126173	-30.671106	-45.000000	-45.000000	-2083.482080	981.743819	136.011539	-180.000000	726.679794	40.267297	10.949692	-21.167634	
6.6000	-25.687230	-33.928163	48.356012	-77.969733	775.691259	9.101132	7.658653	-45.000000	36.815810	-45.000000	-44.267254	2063.288916	-2636.035480	150.207182	-106.045188	1090.310929	22.750007	17.218517	11.494107	13.860033	37.117961	-30.445457	-45.000000	-45.000000	-2083.702971	981.594650	136.116671	-180.000000	726.499913	40.754820	10.955542	-21.184669	
6.6100	-25.289374	-34.095878	48.980767	-75.127248	775.240318	9.069205	7.640865	-45.000000	36.710926	-45.000000	-44.496531	2063.428212	-2636.174586	150.364033	-105.786764	1090.192383	23.837128	17.186301	11.353988	13.867375	37.107167	-30.240445	-45.000000	-45.000000	-2083.921126	981.447221	136.242294	-180.000000	726.343994	41.154424	10.950771	-21.186604	
6.6200	-24.910717	-34.224013	49.556869	-72.460740	774.880046	9.023577	7.627646	-45.000000	36.638659	-45.000000	-44.622311	2063.545740	-2636.315422	150.527202	-105.536696	1090.080143	24.935369	17.156501	11.216573	13.872159	37.091979	-30.054090	-45.000000	-45.000000	-2084.128879	981.304126	136.353795	-180.000000	726.202571	41.467720	10.942444	-21.174779	
6.6300	-24.539984	-34.329940	50.119194	-69.976753	774.603632	8.966583	7.613299	-45.000000	36.572393	-45.000000	-44.697098	2063.647761	-2636.447672	150.696681	-105.331092	1089.970775	26.012632	17.126766	11.077926	13.878927	37.075687	-29.890397	-45.000000	-45.000000	-2084.323965	981.159822	136.475273	-180.000000	726.077520	41.700179	10.928700	-21.150826	
6.6400	-24.208648	-34.394249	50.605950	-67.677559	774.403923	8.901741	7.606087	-45.000000	36.539837	-45.000000	-44.695332	2063.722431	-2636.589664	150.843793	-105.148080	1089.871285	27.054656	17.103438	10.964694	13.869328	37.055848	-29.742559	-45.000000	-45.000000	-2084.490625	981.029437	136.544098	-180.000000	725.955584	41.867088	10.921321	-21.119856	
6.6500	-23.889317	-34.442567	51.076852	-65.561683	774.273440	8.833445	7.594551	-45.000000	36.503754	-45.000000	-44.715215	2063.789453	-2636.713112	150.966232	-105.040823	1089.781031	28.042640	17.084715	10.861327	13.856959	37.038371	-29.606680	-45.000000	-45.000000	-2084.638406	980.904934	136.602638	-180.000000	725.841928	41.978925	10.914251	-21.083653	
6.6600	-23.606059	-34.458205	51.483524	-63.624871	774.204792	8.766435	7.588877	-45.000000	36.488291	-45.000000	-44.728298	2063.839447	-2636.834969	151.046143	-104.993610	1089.701311	28.969913	17.074529	10.789275	13.823583	37.022248	-29.485593	-45.000000	-45.000000	-2084.757861	980.790100	136.614344	-180.000000	725.733375	42.053055	10.915716	-21.049733	
6.6700	-23.331198	-34.467639	51.888019	-61.860387	774.190857	8.705088	7.578316	-45.000000	36.452594	-45.000000	-44.796835	2063.891980	-2636.930927	151.099057	-105.044592	1089.624518	29.815695	17.067613	10.724023	13.794084	37.013192	-29.375363	-45.000000	-45.000000	-2084.868227	980.681998	136.633733	-180.000000	725.637076	42.098324	10.913628	-21.016631	
6.6800	-23.087039	-34.454745	52.241589	-60.259959	774.225105	8.652692	7.574346	-45.000000	36.433729	-45.000000	-44.846836	2063.933517	-2637.019736	151.128935	-105.153749	1089.554412	30.563168	17.066606	10.691577	13.754196	37.003929	-29.279400	-45.000000	-45.000000	-2084.963297	980.582492	136.631167	-180.000000	725.554926	42.124959	10.916301	-20.991049	
